<mxfile host="Electron" modified="2024-06-09T12:19:45.334Z" agent="Mozilla/5.0 (Macintosh; Intel Mac OS X 10_15_7) AppleWebKit/537.36 (KHTML, like Gecko) draw.io/22.1.18 Chrome/120.0.6099.199 Electron/28.1.2 Safari/537.36" etag="UbBgfVq2xdHHnB7JWpBs" version="22.1.18" type="device">
  <diagram name="第 1 页" id="RiyzWxT4RloGqWYnUwmC">
    <mxGraphModel dx="852" dy="553" grid="0" gridSize="10" guides="1" tooltips="1" connect="1" arrows="1" fold="1" page="1" pageScale="1" pageWidth="1654" pageHeight="2336" math="0" shadow="0">
      <root>
        <mxCell id="0" />
        <mxCell id="1" parent="0" />
        <mxCell id="L-c4Mu9GiuPDpKp_LTlZ-1" value="" style="rounded=0;whiteSpace=wrap;html=1;strokeColor=none;fillColor=none;" parent="1" vertex="1">
          <mxGeometry x="125" y="395" width="1384" height="407" as="geometry" />
        </mxCell>
        <mxCell id="P8Mqd3i1ZP-7e1r_wHSP-1" value="&lt;font color=&quot;#ffffff&quot; style=&quot;font-size: 22px;&quot; face=&quot;Times New Roman&quot;&gt;File 1&lt;/font&gt;" style="shape=card;whiteSpace=wrap;html=1;size=18;fillColor=#FB8402;strokeColor=#FFB703;fontSize=22;" parent="1" vertex="1">
          <mxGeometry x="174" y="455" width="114" height="49" as="geometry" />
        </mxCell>
        <mxCell id="P8Mqd3i1ZP-7e1r_wHSP-2" value="&lt;font color=&quot;#ffffff&quot; style=&quot;font-size: 22px;&quot; face=&quot;Times New Roman&quot;&gt;File 2&lt;/font&gt;" style="shape=card;whiteSpace=wrap;html=1;size=18;fillColor=#FB8402;strokeColor=#FFB703;fontSize=22;" parent="1" vertex="1">
          <mxGeometry x="174" y="516" width="114" height="49" as="geometry" />
        </mxCell>
        <mxCell id="P8Mqd3i1ZP-7e1r_wHSP-3" value="&lt;font color=&quot;#ffffff&quot; style=&quot;font-size: 22px;&quot; face=&quot;Times New Roman&quot;&gt;File 3&lt;/font&gt;" style="shape=card;whiteSpace=wrap;html=1;size=18;fillColor=#FB8402;strokeColor=#FFB703;fontSize=22;" parent="1" vertex="1">
          <mxGeometry x="174" y="577" width="114" height="49" as="geometry" />
        </mxCell>
        <mxCell id="P8Mqd3i1ZP-7e1r_wHSP-4" value="&lt;font color=&quot;#ffffff&quot; style=&quot;font-size: 22px;&quot; face=&quot;Times New Roman&quot;&gt;File 4&lt;/font&gt;" style="shape=card;whiteSpace=wrap;html=1;size=18;fillColor=#FB8402;strokeColor=#FFB703;fontSize=22;" parent="1" vertex="1">
          <mxGeometry x="174" y="638" width="114" height="49" as="geometry" />
        </mxCell>
        <mxCell id="P8Mqd3i1ZP-7e1r_wHSP-5" value="" style="endArrow=classic;html=1;rounded=0;strokeWidth=2;fontSize=22;" parent="1" edge="1">
          <mxGeometry width="50" height="50" relative="1" as="geometry">
            <mxPoint x="288" y="479" as="sourcePoint" />
            <mxPoint x="362" y="479" as="targetPoint" />
          </mxGeometry>
        </mxCell>
        <mxCell id="P8Mqd3i1ZP-7e1r_wHSP-6" value="" style="endArrow=classic;html=1;rounded=0;strokeWidth=2;fontSize=22;" parent="1" edge="1">
          <mxGeometry width="50" height="50" relative="1" as="geometry">
            <mxPoint x="288" y="540" as="sourcePoint" />
            <mxPoint x="362" y="540" as="targetPoint" />
          </mxGeometry>
        </mxCell>
        <mxCell id="P8Mqd3i1ZP-7e1r_wHSP-7" value="" style="endArrow=classic;html=1;rounded=0;strokeWidth=2;fontSize=22;" parent="1" edge="1">
          <mxGeometry width="50" height="50" relative="1" as="geometry">
            <mxPoint x="288" y="601" as="sourcePoint" />
            <mxPoint x="362" y="601" as="targetPoint" />
          </mxGeometry>
        </mxCell>
        <mxCell id="P8Mqd3i1ZP-7e1r_wHSP-8" value="" style="endArrow=classic;html=1;rounded=0;strokeWidth=2;fontSize=22;" parent="1" edge="1">
          <mxGeometry width="50" height="50" relative="1" as="geometry">
            <mxPoint x="288" y="662" as="sourcePoint" />
            <mxPoint x="362" y="662" as="targetPoint" />
          </mxGeometry>
        </mxCell>
        <mxCell id="P8Mqd3i1ZP-7e1r_wHSP-17" style="edgeStyle=orthogonalEdgeStyle;rounded=0;orthogonalLoop=1;jettySize=auto;html=1;strokeWidth=2;fontSize=22;" parent="1" source="P8Mqd3i1ZP-7e1r_wHSP-9" edge="1">
          <mxGeometry relative="1" as="geometry">
            <mxPoint x="552" y="479.5" as="targetPoint" />
          </mxGeometry>
        </mxCell>
        <mxCell id="P8Mqd3i1ZP-7e1r_wHSP-9" value="&lt;font style=&quot;font-size: 22px;&quot; face=&quot;Times New Roman&quot;&gt;Read Task&lt;/font&gt;" style="rounded=0;whiteSpace=wrap;html=1;strokeWidth=2;fontSize=22;" parent="1" vertex="1">
          <mxGeometry x="362" y="455" width="123" height="49" as="geometry" />
        </mxCell>
        <mxCell id="P8Mqd3i1ZP-7e1r_wHSP-13" value="&lt;font style=&quot;font-size: 22px;&quot; face=&quot;Times New Roman&quot;&gt;Read Task&lt;/font&gt;" style="rounded=0;whiteSpace=wrap;html=1;strokeWidth=2;fontSize=22;" parent="1" vertex="1">
          <mxGeometry x="362" y="516" width="123" height="49" as="geometry" />
        </mxCell>
        <mxCell id="P8Mqd3i1ZP-7e1r_wHSP-14" value="&lt;font style=&quot;font-size: 22px;&quot; face=&quot;Times New Roman&quot;&gt;Read Task&lt;/font&gt;" style="rounded=0;whiteSpace=wrap;html=1;strokeWidth=2;fontSize=22;" parent="1" vertex="1">
          <mxGeometry x="362" y="577" width="123" height="49" as="geometry" />
        </mxCell>
        <mxCell id="P8Mqd3i1ZP-7e1r_wHSP-15" value="&lt;font style=&quot;font-size: 22px;&quot; face=&quot;Times New Roman&quot;&gt;Read Task&lt;/font&gt;" style="rounded=0;whiteSpace=wrap;html=1;strokeWidth=2;fontSize=22;" parent="1" vertex="1">
          <mxGeometry x="362" y="638" width="123" height="49" as="geometry" />
        </mxCell>
        <mxCell id="P8Mqd3i1ZP-7e1r_wHSP-16" value="&lt;font style=&quot;font-size: 22px;&quot; face=&quot;Times New Roman&quot; color=&quot;#ffffff&quot;&gt;Block&lt;/font&gt;" style="rounded=0;whiteSpace=wrap;html=1;fillColor=#219EBC;strokeColor=#90C9E6;fontSize=22;" parent="1" vertex="1">
          <mxGeometry x="553" y="455" width="110" height="49" as="geometry" />
        </mxCell>
        <mxCell id="P8Mqd3i1ZP-7e1r_wHSP-18" style="edgeStyle=orthogonalEdgeStyle;rounded=0;orthogonalLoop=1;jettySize=auto;html=1;strokeWidth=2;fontSize=22;" parent="1" edge="1">
          <mxGeometry relative="1" as="geometry">
            <mxPoint x="552" y="540.5" as="targetPoint" />
            <mxPoint x="485" y="541" as="sourcePoint" />
          </mxGeometry>
        </mxCell>
        <mxCell id="P8Mqd3i1ZP-7e1r_wHSP-19" value="&lt;font style=&quot;font-size: 22px;&quot; face=&quot;Times New Roman&quot; color=&quot;#ffffff&quot;&gt;Block&lt;/font&gt;" style="rounded=0;whiteSpace=wrap;html=1;fillColor=#219EBC;strokeColor=#90C9E6;fontSize=22;" parent="1" vertex="1">
          <mxGeometry x="553" y="516" width="110" height="49" as="geometry" />
        </mxCell>
        <mxCell id="P8Mqd3i1ZP-7e1r_wHSP-20" style="edgeStyle=orthogonalEdgeStyle;rounded=0;orthogonalLoop=1;jettySize=auto;html=1;strokeWidth=2;fontSize=22;" parent="1" edge="1">
          <mxGeometry relative="1" as="geometry">
            <mxPoint x="552" y="601.5" as="targetPoint" />
            <mxPoint x="485" y="602" as="sourcePoint" />
          </mxGeometry>
        </mxCell>
        <mxCell id="P8Mqd3i1ZP-7e1r_wHSP-21" value="&lt;font style=&quot;font-size: 22px;&quot; face=&quot;Times New Roman&quot; color=&quot;#ffffff&quot;&gt;Block&lt;/font&gt;" style="rounded=0;whiteSpace=wrap;html=1;fillColor=#219EBC;strokeColor=#90C9E6;fontSize=22;" parent="1" vertex="1">
          <mxGeometry x="553" y="577" width="110" height="49" as="geometry" />
        </mxCell>
        <mxCell id="P8Mqd3i1ZP-7e1r_wHSP-22" style="edgeStyle=orthogonalEdgeStyle;rounded=0;orthogonalLoop=1;jettySize=auto;html=1;strokeWidth=2;fontSize=22;" parent="1" edge="1">
          <mxGeometry relative="1" as="geometry">
            <mxPoint x="552" y="662.5" as="targetPoint" />
            <mxPoint x="485" y="663" as="sourcePoint" />
          </mxGeometry>
        </mxCell>
        <mxCell id="P8Mqd3i1ZP-7e1r_wHSP-23" value="&lt;font style=&quot;font-size: 22px;&quot; face=&quot;Times New Roman&quot; color=&quot;#ffffff&quot;&gt;Block&lt;/font&gt;" style="rounded=0;whiteSpace=wrap;html=1;fillColor=#219EBC;strokeColor=#90C9E6;fontSize=22;" parent="1" vertex="1">
          <mxGeometry x="553" y="638" width="110" height="49" as="geometry" />
        </mxCell>
        <mxCell id="P8Mqd3i1ZP-7e1r_wHSP-24" value="&lt;font color=&quot;#ffffff&quot; style=&quot;font-size: 22px;&quot; face=&quot;Times New Roman&quot;&gt;File 1&lt;/font&gt;" style="shape=card;whiteSpace=wrap;html=1;size=18;fillColor=#FB8402;strokeColor=#FFB703;fontSize=22;" parent="1" vertex="1">
          <mxGeometry x="920" y="455" width="114" height="49" as="geometry" />
        </mxCell>
        <mxCell id="P8Mqd3i1ZP-7e1r_wHSP-25" value="&lt;font color=&quot;#ffffff&quot; style=&quot;font-size: 22px;&quot; face=&quot;Times New Roman&quot;&gt;File 2&lt;/font&gt;" style="shape=card;whiteSpace=wrap;html=1;size=18;fillColor=#FB8402;strokeColor=#FFB703;fontSize=22;" parent="1" vertex="1">
          <mxGeometry x="920" y="516" width="114" height="49" as="geometry" />
        </mxCell>
        <mxCell id="P8Mqd3i1ZP-7e1r_wHSP-26" value="&lt;font color=&quot;#ffffff&quot; style=&quot;font-size: 22px;&quot; face=&quot;Times New Roman&quot;&gt;File 3&lt;/font&gt;" style="shape=card;whiteSpace=wrap;html=1;size=18;fillColor=#FB8402;strokeColor=#FFB703;fontSize=22;" parent="1" vertex="1">
          <mxGeometry x="920" y="577" width="114" height="49" as="geometry" />
        </mxCell>
        <mxCell id="P8Mqd3i1ZP-7e1r_wHSP-27" value="&lt;font color=&quot;#ffffff&quot; style=&quot;font-size: 22px;&quot; face=&quot;Times New Roman&quot;&gt;File 4&lt;/font&gt;" style="shape=card;whiteSpace=wrap;html=1;size=18;fillColor=#FB8402;strokeColor=#FFB703;fontSize=22;" parent="1" vertex="1">
          <mxGeometry x="920" y="638" width="114" height="49" as="geometry" />
        </mxCell>
        <mxCell id="P8Mqd3i1ZP-7e1r_wHSP-28" value="" style="endArrow=classic;html=1;rounded=0;strokeWidth=2;entryX=0;entryY=0.5;entryDx=0;entryDy=0;fontSize=22;" parent="1" target="P8Mqd3i1ZP-7e1r_wHSP-34" edge="1">
          <mxGeometry width="50" height="50" relative="1" as="geometry">
            <mxPoint x="1034" y="479" as="sourcePoint" />
            <mxPoint x="1108" y="479" as="targetPoint" />
          </mxGeometry>
        </mxCell>
        <mxCell id="P8Mqd3i1ZP-7e1r_wHSP-29" value="" style="endArrow=classic;html=1;rounded=0;strokeWidth=2;entryX=0;entryY=0.5;entryDx=0;entryDy=0;fontSize=22;" parent="1" target="P8Mqd3i1ZP-7e1r_wHSP-34" edge="1">
          <mxGeometry width="50" height="50" relative="1" as="geometry">
            <mxPoint x="1034" y="540" as="sourcePoint" />
            <mxPoint x="1108" y="540" as="targetPoint" />
          </mxGeometry>
        </mxCell>
        <mxCell id="P8Mqd3i1ZP-7e1r_wHSP-30" value="" style="endArrow=classic;html=1;rounded=0;strokeWidth=2;entryX=0;entryY=0.5;entryDx=0;entryDy=0;fontSize=22;" parent="1" target="P8Mqd3i1ZP-7e1r_wHSP-35" edge="1">
          <mxGeometry width="50" height="50" relative="1" as="geometry">
            <mxPoint x="1034" y="601" as="sourcePoint" />
            <mxPoint x="1108" y="601" as="targetPoint" />
          </mxGeometry>
        </mxCell>
        <mxCell id="P8Mqd3i1ZP-7e1r_wHSP-31" value="" style="endArrow=classic;html=1;rounded=0;strokeWidth=2;entryX=0;entryY=0.5;entryDx=0;entryDy=0;fontSize=22;" parent="1" target="P8Mqd3i1ZP-7e1r_wHSP-35" edge="1">
          <mxGeometry width="50" height="50" relative="1" as="geometry">
            <mxPoint x="1034" y="662" as="sourcePoint" />
            <mxPoint x="1108" y="662" as="targetPoint" />
          </mxGeometry>
        </mxCell>
        <mxCell id="P8Mqd3i1ZP-7e1r_wHSP-34" value="&lt;font style=&quot;font-size: 22px;&quot; face=&quot;Times New Roman&quot;&gt;Read Task&lt;/font&gt;" style="rounded=0;whiteSpace=wrap;html=1;strokeWidth=2;fontSize=22;" parent="1" vertex="1">
          <mxGeometry x="1108" y="487" width="123" height="49" as="geometry" />
        </mxCell>
        <mxCell id="P8Mqd3i1ZP-7e1r_wHSP-35" value="&lt;font style=&quot;font-size: 22px;&quot; face=&quot;Times New Roman&quot;&gt;Read Task&lt;/font&gt;" style="rounded=0;whiteSpace=wrap;html=1;strokeWidth=2;fontSize=22;" parent="1" vertex="1">
          <mxGeometry x="1108" y="608" width="123" height="49" as="geometry" />
        </mxCell>
        <mxCell id="P8Mqd3i1ZP-7e1r_wHSP-38" style="edgeStyle=orthogonalEdgeStyle;rounded=0;orthogonalLoop=1;jettySize=auto;html=1;strokeWidth=2;fontSize=22;" parent="1" edge="1">
          <mxGeometry relative="1" as="geometry">
            <mxPoint x="1298" y="511.5" as="targetPoint" />
            <mxPoint x="1231" y="512" as="sourcePoint" />
          </mxGeometry>
        </mxCell>
        <mxCell id="P8Mqd3i1ZP-7e1r_wHSP-39" value="&lt;font style=&quot;font-size: 22px;&quot; face=&quot;Times New Roman&quot; color=&quot;#ffffff&quot;&gt;Block&lt;/font&gt;" style="rounded=0;whiteSpace=wrap;html=1;fillColor=#219EBC;strokeColor=#90C9E6;fontSize=22;" parent="1" vertex="1">
          <mxGeometry x="1299" y="487" width="110" height="49" as="geometry" />
        </mxCell>
        <mxCell id="P8Mqd3i1ZP-7e1r_wHSP-40" style="edgeStyle=orthogonalEdgeStyle;rounded=0;orthogonalLoop=1;jettySize=auto;html=1;strokeWidth=2;fontSize=22;" parent="1" edge="1">
          <mxGeometry relative="1" as="geometry">
            <mxPoint x="1298" y="632.5" as="targetPoint" />
            <mxPoint x="1231" y="633" as="sourcePoint" />
          </mxGeometry>
        </mxCell>
        <mxCell id="P8Mqd3i1ZP-7e1r_wHSP-41" value="&lt;font style=&quot;font-size: 22px;&quot; face=&quot;Times New Roman&quot; color=&quot;#ffffff&quot;&gt;Block&lt;/font&gt;" style="rounded=0;whiteSpace=wrap;html=1;fillColor=#219EBC;strokeColor=#90C9E6;fontSize=22;" parent="1" vertex="1">
          <mxGeometry x="1299" y="608" width="110" height="49" as="geometry" />
        </mxCell>
        <mxCell id="P8Mqd3i1ZP-7e1r_wHSP-44" value="&lt;div style=&quot;font-size: 20px;&quot;&gt;&lt;span style=&quot;background-color: initial;&quot;&gt;&lt;font face=&quot;Garamond&quot;&gt;ray.data.read_csv(path)&lt;/font&gt;&lt;/span&gt;&lt;br&gt;&lt;/div&gt;" style="text;html=1;strokeColor=none;fillColor=none;align=center;verticalAlign=middle;whiteSpace=wrap;rounded=0;" parent="1" vertex="1">
          <mxGeometry x="216" y="695" width="440" height="62" as="geometry" />
        </mxCell>
        <mxCell id="P8Mqd3i1ZP-7e1r_wHSP-45" value="&lt;div style=&quot;font-size: 20px;&quot;&gt;&lt;div&gt;&lt;font face=&quot;Times New Roman&quot;&gt;手动设置并行度：&lt;/font&gt;&lt;/div&gt;&lt;div&gt;&lt;font face=&quot;Garamond&quot;&gt;ray.data.read_csv(path, parallelism=2)&lt;/font&gt;&lt;/div&gt;&lt;/div&gt;" style="text;html=1;strokeColor=none;fillColor=none;align=center;verticalAlign=middle;whiteSpace=wrap;rounded=0;" parent="1" vertex="1">
          <mxGeometry x="982" y="695" width="440" height="62" as="geometry" />
        </mxCell>
      </root>
    </mxGraphModel>
  </diagram>
</mxfile>
